<svg xmlns="http://www.w3.org/2000/svg" viewBox="0 0 16 16" shape-rendering="crispEdges" role="img"><defs><linearGradient id="g_favicon" x1="0" y1="0" x2="1" y2="1"><stop offset="0" stop-color="#1c1a17"/><stop offset="1" stop-color="#2b2721"/></linearGradient></defs><rect width="16" height="16" fill="url(#g_favicon)"/><rect x="3" y="1" width="2" height="1" fill="#d9b39a"/><rect x="11" y="1" width="2" height="1" fill="#d9b39a"/><rect x="2" y="2" width="4" height="1" fill="#d9b39a"/><rect x="10" y="2" width="4" height="1" fill="#d9b39a"/><rect x="2" y="3" width="12" height="1" fill="#d9b39a"/><rect x="2" y="4" width="1" height="1" fill="#d9b39a"/><rect x="3" y="4" width="10" height="1" fill="#f0d7c2"/><rect x="13" y="4" width="1" height="1" fill="#d9b39a"/><rect x="2" y="5" width="1" height="1" fill="#d9b39a"/><rect x="3" y="5" width="2" height="1" fill="#f0d7c2"/><rect x="5" y="5" width="2" height="1" fill="#1c1a17"/><rect x="7" y="5" width="2" height="1" fill="#f0d7c2"/><rect x="9" y="5" width="2" height="1" fill="#1c1a17"/><rect x="11" y="5" width="2" height="1" fill="#f0d7c2"/><rect x="13" y="5" width="1" height="1" fill="#d9b39a"/><rect x="2" y="6" width="1" height="1" fill="#d9b39a"/><rect x="3" y="6" width="2" height="1" fill="#f0d7c2"/><rect x="5" y="6" width="2" height="1" fill="#1c1a17"/><rect x="7" y="6" width="2" height="1" fill="#f0d7c2"/><rect x="9" y="6" width="2" height="1" fill="#1c1a17"/><rect x="11" y="6" width="2" height="1" fill="#f0d7c2"/><rect x="13" y="6" width="1" height="1" fill="#d9b39a"/><rect x="2" y="7" width="1" height="1" fill="#d9b39a"/><rect x="3" y="7" width="10" height="1" fill="#f0d7c2"/><rect x="13" y="7" width="1" height="1" fill="#d9b39a"/><rect x="2" y="8" width="1" height="1" fill="#d9b39a"/><rect x="3" y="8" width="2" height="1" fill="#f0d7c2"/><rect x="5" y="8" width="6" height="1" fill="#c48f78"/><rect x="11" y="8" width="2" height="1" fill="#f0d7c2"/><rect x="13" y="8" width="1" height="1" fill="#d9b39a"/><rect x="2" y="9" width="1" height="1" fill="#d9b39a"/><rect x="3" y="9" width="2" height="1" fill="#f0d7c2"/><rect x="5" y="9" width="1" height="1" fill="#c48f78"/><rect x="6" y="9" width="1" height="1" fill="#6b4535"/><rect x="7" y="9" width="2" height="1" fill="#c48f78"/><rect x="9" y="9" width="1" height="1" fill="#6b4535"/><rect x="10" y="9" width="1" height="1" fill="#c48f78"/><rect x="11" y="9" width="2" height="1" fill="#f0d7c2"/><rect x="13" y="9" width="1" height="1" fill="#d9b39a"/><rect x="2" y="10" width="1" height="1" fill="#d9b39a"/><rect x="3" y="10" width="2" height="1" fill="#f0d7c2"/><rect x="5" y="10" width="6" height="1" fill="#c48f78"/><rect x="11" y="10" width="2" height="1" fill="#f0d7c2"/><rect x="13" y="10" width="1" height="1" fill="#d9b39a"/><rect x="2" y="11" width="1" height="1" fill="#d9b39a"/><rect x="3" y="11" width="10" height="1" fill="#f0d7c2"/><rect x="13" y="11" width="1" height="1" fill="#d9b39a"/><rect x="2" y="12" width="12" height="1" fill="#d9b39a"/><rect x="3" y="13" width="10" height="1" fill="#d9b39a"/></svg>