<svg xmlns="http://www.w3.org/2000/svg" viewBox="0 0 16 16" shape-rendering="crispEdges" role="img"><defs><linearGradient id="g_cooling" x1="0" y1="0" x2="1" y2="1"><stop offset="0" stop-color="#0e2a3a"/><stop offset="1" stop-color="#17506b"/></linearGradient></defs><rect width="16" height="16" fill="url(#g_cooling)"/><rect x="3" y="1" width="1" height="1" fill="#dff4ff"/><rect x="7" y="1" width="1" height="1" fill="#dff4ff"/><rect x="11" y="1" width="1" height="1" fill="#dff4ff"/><rect x="2" y="3" width="2" height="1" fill="#a9d8ea"/><rect x="5" y="3" width="2" height="1" fill="#a9d8ea"/><rect x="8" y="3" width="2" height="1" fill="#a9d8ea"/><rect x="11" y="3" width="2" height="1" fill="#a9d8ea"/><rect x="2" y="4" width="2" height="1" fill="#a9d8ea"/><rect x="5" y="4" width="2" height="1" fill="#a9d8ea"/><rect x="8" y="4" width="2" height="1" fill="#a9d8ea"/><rect x="11" y="4" width="2" height="1" fill="#a9d8ea"/><rect x="2" y="5" width="2" height="1" fill="#a9d8ea"/><rect x="5" y="5" width="2" height="1" fill="#a9d8ea"/><rect x="8" y="5" width="2" height="1" fill="#a9d8ea"/><rect x="11" y="5" width="2" height="1" fill="#a9d8ea"/><rect x="2" y="6" width="2" height="1" fill="#a9d8ea"/><rect x="5" y="6" width="2" height="1" fill="#a9d8ea"/><rect x="8" y="6" width="2" height="1" fill="#a9d8ea"/><rect x="11" y="6" width="2" height="1" fill="#a9d8ea"/><rect x="2" y="7" width="2" height="1" fill="#a9d8ea"/><rect x="5" y="7" width="2" height="1" fill="#a9d8ea"/><rect x="8" y="7" width="2" height="1" fill="#a9d8ea"/><rect x="11" y="7" width="2" height="1" fill="#a9d8ea"/><rect x="2" y="8" width="2" height="1" fill="#a9d8ea"/><rect x="5" y="8" width="2" height="1" fill="#a9d8ea"/><rect x="8" y="8" width="2" height="1" fill="#a9d8ea"/><rect x="11" y="8" width="2" height="1" fill="#a9d8ea"/><rect x="2" y="9" width="2" height="1" fill="#a9d8ea"/><rect x="5" y="9" width="2" height="1" fill="#a9d8ea"/><rect x="8" y="9" width="2" height="1" fill="#a9d8ea"/><rect x="11" y="9" width="2" height="1" fill="#a9d8ea"/><rect x="2" y="10" width="2" height="1" fill="#a9d8ea"/><rect x="5" y="10" width="2" height="1" fill="#a9d8ea"/><rect x="8" y="10" width="2" height="1" fill="#a9d8ea"/><rect x="11" y="10" width="2" height="1" fill="#a9d8ea"/><rect x="2" y="11" width="12" height="1" fill="#6b93ad"/><rect x="2" y="12" width="12" height="1" fill="#6b93ad"/></svg>