<svg xmlns="http://www.w3.org/2000/svg" viewBox="0 0 16 16" shape-rendering="crispEdges" role="img"><defs><linearGradient id="g_cpo" x1="0" y1="0" x2="1" y2="1"><stop offset="0" stop-color="#0b1f2b"/><stop offset="1" stop-color="#134454"/></linearGradient></defs><rect width="16" height="16" fill="url(#g_cpo)"/><rect x="2" y="5" width="7" height="1" fill="#2b3648"/><rect x="2" y="6" width="7" height="1" fill="#2b3648"/><rect x="9" y="6" width="4" height="1" fill="#3fb8d8"/><rect x="13" y="6" width="1" height="1" fill="#c8f6ff"/><rect x="2" y="7" width="2" height="1" fill="#2b3648"/><rect x="4" y="7" width="2" height="1" fill="#6ce8ff"/><rect x="6" y="7" width="3" height="1" fill="#2b3648"/><rect x="2" y="8" width="2" height="1" fill="#2b3648"/><rect x="4" y="8" width="2" height="1" fill="#6ce8ff"/><rect x="6" y="8" width="3" height="1" fill="#2b3648"/><rect x="9" y="8" width="4" height="1" fill="#3fb8d8"/><rect x="13" y="8" width="1" height="1" fill="#c8f6ff"/><rect x="2" y="9" width="7" height="1" fill="#2b3648"/><rect x="2" y="10" width="7" height="1" fill="#2b3648"/><rect x="9" y="10" width="4" height="1" fill="#3fb8d8"/><rect x="13" y="10" width="1" height="1" fill="#c8f6ff"/><rect x="2" y="11" width="7" height="1" fill="#2b3648"/></svg>