<svg xmlns="http://www.w3.org/2000/svg" viewBox="0 0 16 16" shape-rendering="crispEdges" role="img"><defs><linearGradient id="g_cupnoodle" x1="0" y1="0" x2="1" y2="1"><stop offset="0" stop-color="#2a1512"/><stop offset="1" stop-color="#0f0a08"/></linearGradient></defs><rect width="16" height="16" fill="url(#g_cupnoodle)"/><rect x="6" y="1" width="1" height="1" fill="#bcdfe8"/><rect x="9" y="1" width="1" height="1" fill="#bcdfe8"/><rect x="7" y="2" width="2" height="1" fill="#bcdfe8"/><rect x="6" y="3" width="1" height="1" fill="#bcdfe8"/><rect x="9" y="3" width="1" height="1" fill="#bcdfe8"/><rect x="7" y="4" width="2" height="1" fill="#bcdfe8"/><rect x="3" y="5" width="10" height="1" fill="#9e2b22"/><rect x="3" y="6" width="9" height="1" fill="#f2ead6"/><rect x="12" y="6" width="1" height="1" fill="#9e2b22"/><rect x="4" y="7" width="7" height="1" fill="#e23b2f"/><rect x="11" y="7" width="1" height="1" fill="#9e2b22"/><rect x="4" y="8" width="7" height="1" fill="#e23b2f"/><rect x="11" y="8" width="1" height="1" fill="#9e2b22"/><rect x="4" y="9" width="7" height="1" fill="#f2ead6"/><rect x="11" y="9" width="1" height="1" fill="#9e2b22"/><rect x="5" y="10" width="5" height="1" fill="#f2ead6"/><rect x="10" y="10" width="1" height="1" fill="#9e2b22"/><rect x="5" y="11" width="5" height="1" fill="#f2ead6"/><rect x="10" y="11" width="1" height="1" fill="#9e2b22"/><rect x="5" y="12" width="5" height="1" fill="#f2ead6"/><rect x="10" y="12" width="1" height="1" fill="#9e2b22"/><rect x="5" y="13" width="6" height="1" fill="#9e2b22"/></svg>