<svg xmlns="http://www.w3.org/2000/svg" viewBox="0 0 16 16" shape-rendering="crispEdges" role="img"><defs><linearGradient id="g_fcbga" x1="0" y1="0" x2="1" y2="1"><stop offset="0" stop-color="#101c2c"/><stop offset="1" stop-color="#1c3350"/></linearGradient></defs><rect width="16" height="16" fill="url(#g_fcbga)"/><rect x="4" y="2" width="8" height="1" fill="#5c6b80"/><rect x="4" y="3" width="8" height="1" fill="#3d4a5c"/><rect x="4" y="4" width="8" height="1" fill="#3d4a5c"/><rect x="4" y="5" width="8" height="1" fill="#3d4a5c"/><rect x="2" y="6" width="12" height="1" fill="#1f6b52"/><rect x="2" y="7" width="12" height="1" fill="#1f6b52"/><rect x="2" y="8" width="12" height="1" fill="#1f6b52"/><rect x="2" y="9" width="2" height="1" fill="#e8b84b"/><rect x="5" y="9" width="2" height="1" fill="#e8b84b"/><rect x="8" y="9" width="2" height="1" fill="#e8b84b"/><rect x="11" y="9" width="2" height="1" fill="#e8b84b"/><rect x="2" y="10" width="2" height="1" fill="#e8b84b"/><rect x="5" y="10" width="2" height="1" fill="#e8b84b"/><rect x="8" y="10" width="2" height="1" fill="#e8b84b"/><rect x="11" y="10" width="2" height="1" fill="#e8b84b"/></svg>