<svg xmlns="http://www.w3.org/2000/svg" viewBox="0 0 16 16" shape-rendering="crispEdges" role="img"><defs><linearGradient id="g_fuelcellstack" x1="0" y1="0" x2="1" y2="1"><stop offset="0" stop-color="#0d2417"/><stop offset="1" stop-color="#06110b"/></linearGradient></defs><rect width="16" height="16" fill="url(#g_fuelcellstack)"/><rect x="4" y="1" width="1" height="1" fill="#46c07a"/><rect x="9" y="1" width="1" height="1" fill="#46c07a"/><rect x="3" y="2" width="10" height="1" fill="#eef1f6"/><rect x="3" y="3" width="10" height="1" fill="#cfd3da"/><rect x="3" y="4" width="10" height="1" fill="#7c8492"/><rect x="3" y="5" width="10" height="1" fill="#cfd3da"/><rect x="3" y="6" width="10" height="1" fill="#7c8492"/><rect x="3" y="7" width="10" height="1" fill="#cfd3da"/><rect x="3" y="8" width="10" height="1" fill="#7c8492"/><rect x="3" y="9" width="10" height="1" fill="#cfd3da"/><rect x="3" y="10" width="10" height="1" fill="#7c8492"/><rect x="3" y="11" width="10" height="1" fill="#cfd3da"/><rect x="3" y="12" width="10" height="1" fill="#7c8492"/><rect x="3" y="13" width="10" height="1" fill="#7c8492"/></svg>