<svg xmlns="http://www.w3.org/2000/svg" viewBox="0 0 16 16" shape-rendering="crispEdges" role="img"><defs><linearGradient id="g_hbs" x1="0" y1="0" x2="1" y2="1"><stop offset="0" stop-color="#0d2029"/><stop offset="1" stop-color="#164254"/></linearGradient></defs><rect width="16" height="16" fill="url(#g_hbs)"/><rect x="3" y="2" width="10" height="1" fill="#7fd4e8"/><rect x="3" y="3" width="10" height="1" fill="#7fd4e8"/><rect x="3" y="4" width="10" height="1" fill="#1a4a5c"/><rect x="3" y="5" width="10" height="1" fill="#7fd4e8"/><rect x="3" y="6" width="10" height="1" fill="#7fd4e8"/><rect x="3" y="7" width="10" height="1" fill="#1a4a5c"/><rect x="3" y="8" width="10" height="1" fill="#7fd4e8"/><rect x="3" y="9" width="10" height="1" fill="#7fd4e8"/><rect x="3" y="10" width="10" height="1" fill="#1a4a5c"/><rect x="3" y="11" width="10" height="1" fill="#3f7f9c"/><rect x="3" y="12" width="10" height="1" fill="#3f7f9c"/><rect x="2" y="13" width="12" height="1" fill="#20303c"/><rect x="2" y="14" width="2" height="1" fill="#e8b84b"/><rect x="5" y="14" width="2" height="1" fill="#e8b84b"/><rect x="8" y="14" width="2" height="1" fill="#e8b84b"/><rect x="11" y="14" width="2" height="1" fill="#e8b84b"/></svg>