<svg xmlns="http://www.w3.org/2000/svg" viewBox="0 0 16 16" shape-rendering="crispEdges" role="img"><defs><linearGradient id="g_lngcarrier" x1="0" y1="0" x2="1" y2="1"><stop offset="0" stop-color="#0e1a24"/><stop offset="1" stop-color="#04262e"/></linearGradient></defs><rect width="16" height="16" fill="url(#g_lngcarrier)"/><rect x="2" y="4" width="2" height="1" fill="#dfe6ee"/><rect x="7" y="4" width="2" height="1" fill="#dfe6ee"/><rect x="12" y="4" width="2" height="1" fill="#dfe6ee"/><rect x="1" y="5" width="4" height="1" fill="#dfe6ee"/><rect x="6" y="5" width="4" height="1" fill="#dfe6ee"/><rect x="11" y="5" width="4" height="1" fill="#dfe6ee"/><rect x="1" y="6" width="1" height="1" fill="#ffffff"/><rect x="2" y="6" width="3" height="1" fill="#dfe6ee"/><rect x="6" y="6" width="1" height="1" fill="#ffffff"/><rect x="7" y="6" width="3" height="1" fill="#dfe6ee"/><rect x="11" y="6" width="1" height="1" fill="#ffffff"/><rect x="12" y="6" width="3" height="1" fill="#dfe6ee"/><rect x="1" y="7" width="4" height="1" fill="#dfe6ee"/><rect x="6" y="7" width="4" height="1" fill="#dfe6ee"/><rect x="11" y="7" width="4" height="1" fill="#dfe6ee"/><rect x="2" y="8" width="2" height="1" fill="#dfe6ee"/><rect x="7" y="8" width="2" height="1" fill="#dfe6ee"/><rect x="12" y="8" width="2" height="1" fill="#dfe6ee"/><rect x="1" y="9" width="14" height="1" fill="#d64b3a"/><rect x="1" y="10" width="14" height="1" fill="#d64b3a"/><rect x="2" y="11" width="12" height="1" fill="#9e3428"/><rect x="3" y="12" width="10" height="1" fill="#9e3428"/><rect x="1" y="13" width="14" height="1" fill="#2f7fb0"/><rect x="1" y="14" width="14" height="1" fill="#2f7fb0"/></svg>