<svg xmlns="http://www.w3.org/2000/svg" viewBox="0 0 16 16" shape-rendering="crispEdges" role="img"><defs><linearGradient id="g_paloalto" x1="0" y1="0" x2="1" y2="1"><stop offset="0" stop-color="#161d2b"/><stop offset="1" stop-color="#2a1a12"/></linearGradient></defs><rect width="16" height="16" fill="url(#g_paloalto)"/><rect x="1" y="4" width="14" height="1" fill="#f3f7fb"/><rect x="1" y="5" width="14" height="1" fill="#cfd8e3"/><rect x="1" y="6" width="1" height="1" fill="#cfd8e3"/><rect x="2" y="6" width="2" height="1" fill="#5c6572"/><rect x="4" y="6" width="1" height="1" fill="#cfd8e3"/><rect x="5" y="6" width="2" height="1" fill="#5c6572"/><rect x="7" y="6" width="1" height="1" fill="#cfd8e3"/><rect x="8" y="6" width="2" height="1" fill="#5c6572"/><rect x="10" y="6" width="1" height="1" fill="#cfd8e3"/><rect x="11" y="6" width="2" height="1" fill="#ff8a3d"/><rect x="13" y="6" width="2" height="1" fill="#cfd8e3"/><rect x="1" y="7" width="1" height="1" fill="#cfd8e3"/><rect x="2" y="7" width="2" height="1" fill="#5c6572"/><rect x="4" y="7" width="1" height="1" fill="#cfd8e3"/><rect x="5" y="7" width="2" height="1" fill="#5c6572"/><rect x="7" y="7" width="1" height="1" fill="#cfd8e3"/><rect x="8" y="7" width="2" height="1" fill="#5c6572"/><rect x="10" y="7" width="1" height="1" fill="#cfd8e3"/><rect x="11" y="7" width="2" height="1" fill="#ff8a3d"/><rect x="13" y="7" width="2" height="1" fill="#cfd8e3"/><rect x="1" y="8" width="14" height="1" fill="#cfd8e3"/><rect x="1" y="9" width="1" height="1" fill="#cfd8e3"/><rect x="2" y="9" width="2" height="1" fill="#5c6572"/><rect x="4" y="9" width="1" height="1" fill="#cfd8e3"/><rect x="5" y="9" width="2" height="1" fill="#5c6572"/><rect x="7" y="9" width="1" height="1" fill="#cfd8e3"/><rect x="8" y="9" width="2" height="1" fill="#5c6572"/><rect x="10" y="9" width="5" height="1" fill="#cfd8e3"/><rect x="1" y="10" width="1" height="1" fill="#cfd8e3"/><rect x="2" y="10" width="2" height="1" fill="#5c6572"/><rect x="4" y="10" width="1" height="1" fill="#cfd8e3"/><rect x="5" y="10" width="2" height="1" fill="#5c6572"/><rect x="7" y="10" width="1" height="1" fill="#cfd8e3"/><rect x="8" y="10" width="2" height="1" fill="#5c6572"/><rect x="10" y="10" width="5" height="1" fill="#cfd8e3"/><rect x="1" y="11" width="14" height="1" fill="#5c6572"/><rect x="2" y="12" width="1" height="1" fill="#5c6572"/><rect x="13" y="12" width="1" height="1" fill="#5c6572"/></svg>