<svg xmlns="http://www.w3.org/2000/svg" viewBox="0 0 16 16" shape-rendering="crispEdges" role="img"><defs><linearGradient id="g_rebalance" x1="0" y1="0" x2="1" y2="1"><stop offset="0" stop-color="#1c2438"/><stop offset="1" stop-color="#2b3550"/></linearGradient></defs><rect width="16" height="16" fill="url(#g_rebalance)"/><rect x="7" y="2" width="2" height="1" fill="#a8813a"/><rect x="2" y="3" width="12" height="1" fill="#e8c46a"/><rect x="2" y="4" width="1" height="1" fill="#ffe9a8"/><rect x="7" y="4" width="2" height="1" fill="#a8813a"/><rect x="13" y="4" width="1" height="1" fill="#ffe9a8"/><rect x="1" y="5" width="5" height="1" fill="#ffe9a8"/><rect x="7" y="5" width="2" height="1" fill="#a8813a"/><rect x="10" y="5" width="5" height="1" fill="#ffe9a8"/><rect x="2" y="6" width="3" height="1" fill="#ffe9a8"/><rect x="7" y="6" width="2" height="1" fill="#a8813a"/><rect x="11" y="6" width="3" height="1" fill="#ffe9a8"/><rect x="3" y="7" width="1" height="1" fill="#ffe9a8"/><rect x="7" y="7" width="2" height="1" fill="#a8813a"/><rect x="12" y="7" width="1" height="1" fill="#ffe9a8"/><rect x="7" y="8" width="2" height="1" fill="#a8813a"/><rect x="7" y="9" width="2" height="1" fill="#a8813a"/><rect x="7" y="10" width="2" height="1" fill="#a8813a"/><rect x="6" y="11" width="4" height="1" fill="#a8813a"/><rect x="4" y="12" width="8" height="1" fill="#a8813a"/><rect x="3" y="13" width="10" height="1" fill="#a8813a"/></svg>