<svg xmlns="http://www.w3.org/2000/svg" viewBox="0 0 16 16" shape-rendering="crispEdges" role="img"><defs><linearGradient id="g_toxin" x1="0" y1="0" x2="1" y2="1"><stop offset="0" stop-color="#2e1f45"/><stop offset="1" stop-color="#4a2f6b"/></linearGradient></defs><rect width="16" height="16" fill="url(#g_toxin)"/><rect x="5" y="1" width="5" height="1" fill="#e8e4d8"/><rect x="7" y="2" width="1" height="1" fill="#e8e4d8"/><rect x="7" y="3" width="1" height="1" fill="#e8e4d8"/><rect x="5" y="4" width="5" height="1" fill="#cfd6e0"/><rect x="5" y="5" width="1" height="1" fill="#cfd6e0"/><rect x="9" y="5" width="1" height="1" fill="#cfd6e0"/><rect x="5" y="6" width="1" height="1" fill="#cfd6e0"/><rect x="9" y="6" width="1" height="1" fill="#cfd6e0"/><rect x="5" y="7" width="1" height="1" fill="#cfd6e0"/><rect x="6" y="7" width="3" height="1" fill="#c9a7e8"/><rect x="9" y="7" width="1" height="1" fill="#cfd6e0"/><rect x="5" y="8" width="1" height="1" fill="#cfd6e0"/><rect x="6" y="8" width="3" height="1" fill="#c9a7e8"/><rect x="9" y="8" width="1" height="1" fill="#cfd6e0"/><rect x="5" y="9" width="1" height="1" fill="#cfd6e0"/><rect x="6" y="9" width="3" height="1" fill="#c9a7e8"/><rect x="9" y="9" width="1" height="1" fill="#cfd6e0"/><rect x="5" y="10" width="5" height="1" fill="#cfd6e0"/><rect x="6" y="11" width="3" height="1" fill="#cfd6e0"/><rect x="7" y="12" width="1" height="1" fill="#9aa4b2"/><rect x="7" y="13" width="1" height="1" fill="#9aa4b2"/><rect x="7" y="14" width="1" height="1" fill="#9aa4b2"/></svg>