<svg xmlns="http://www.w3.org/2000/svg" viewBox="0 0 16 16" shape-rendering="crispEdges" role="img"><defs><linearGradient id="g_adr" x1="0" y1="0" x2="1" y2="1"><stop offset="0" stop-color="#1a1626"/><stop offset="1" stop-color="#251f36"/></linearGradient></defs><rect width="16" height="16" fill="url(#g_adr)"/><rect x="10" y="5" width="3" height="1" fill="#f0c05e"/><rect x="10" y="6" width="3" height="1" fill="#f0c05e"/><rect x="10" y="7" width="3" height="1" fill="#f0c05e"/><rect x="3" y="8" width="3" height="1" fill="#8f86c9"/><rect x="7" y="8" width="2" height="1" fill="#e0e0f0"/><rect x="10" y="8" width="3" height="1" fill="#f0c05e"/><rect x="3" y="9" width="3" height="1" fill="#8f86c9"/><rect x="10" y="9" width="3" height="1" fill="#f0c05e"/><rect x="3" y="10" width="3" height="1" fill="#8f86c9"/><rect x="10" y="10" width="3" height="1" fill="#f0c05e"/><rect x="3" y="11" width="3" height="1" fill="#8f86c9"/><rect x="10" y="11" width="3" height="1" fill="#f0c05e"/><rect x="3" y="12" width="3" height="1" fill="#8f86c9"/><rect x="10" y="12" width="3" height="1" fill="#f0c05e"/><rect x="2" y="13" width="12" height="1" fill="#413a5c"/></svg>