<svg xmlns="http://www.w3.org/2000/svg" viewBox="0 0 16 16" shape-rendering="crispEdges" role="img"><defs><linearGradient id="g_consensus" x1="0" y1="0" x2="1" y2="1"><stop offset="0" stop-color="#2a1414"/><stop offset="1" stop-color="#3a1e1e"/></linearGradient></defs><rect width="16" height="16" fill="url(#g_consensus)"/><rect x="6" y="2" width="4" height="1" fill="#e06a5e"/><rect x="4" y="3" width="8" height="1" fill="#e06a5e"/><rect x="3" y="4" width="10" height="1" fill="#e06a5e"/><rect x="2" y="5" width="3" height="1" fill="#e06a5e"/><rect x="5" y="5" width="6" height="1" fill="#f5e2d0"/><rect x="11" y="5" width="3" height="1" fill="#e06a5e"/><rect x="2" y="6" width="2" height="1" fill="#e06a5e"/><rect x="4" y="6" width="8" height="1" fill="#f5e2d0"/><rect x="12" y="6" width="2" height="1" fill="#e06a5e"/><rect x="2" y="7" width="2" height="1" fill="#e06a5e"/><rect x="4" y="7" width="3" height="1" fill="#f5e2d0"/><rect x="7" y="7" width="2" height="1" fill="#ffd24a"/><rect x="9" y="7" width="3" height="1" fill="#f5e2d0"/><rect x="12" y="7" width="2" height="1" fill="#e06a5e"/><rect x="2" y="8" width="2" height="1" fill="#e06a5e"/><rect x="4" y="8" width="3" height="1" fill="#f5e2d0"/><rect x="7" y="8" width="2" height="1" fill="#ffd24a"/><rect x="9" y="8" width="3" height="1" fill="#f5e2d0"/><rect x="12" y="8" width="2" height="1" fill="#e06a5e"/><rect x="2" y="9" width="2" height="1" fill="#e06a5e"/><rect x="4" y="9" width="8" height="1" fill="#f5e2d0"/><rect x="12" y="9" width="2" height="1" fill="#e06a5e"/><rect x="2" y="10" width="3" height="1" fill="#e06a5e"/><rect x="5" y="10" width="6" height="1" fill="#f5e2d0"/><rect x="11" y="10" width="3" height="1" fill="#e06a5e"/><rect x="3" y="11" width="10" height="1" fill="#e06a5e"/><rect x="4" y="12" width="8" height="1" fill="#e06a5e"/><rect x="6" y="13" width="4" height="1" fill="#e06a5e"/></svg>