<svg xmlns="http://www.w3.org/2000/svg" viewBox="0 0 16 16" shape-rendering="crispEdges" role="img"><defs><linearGradient id="g_datalab" x1="0" y1="0" x2="1" y2="1"><stop offset="0" stop-color="#2a2416"/><stop offset="1" stop-color="#1b1910"/></linearGradient></defs><rect width="16" height="16" fill="url(#g_datalab)"/><rect x="7" y="2" width="2" height="1" fill="#bdb7a4"/><rect x="6" y="3" width="1" height="1" fill="#bdb7a4"/><rect x="9" y="3" width="1" height="1" fill="#bdb7a4"/><rect x="6" y="4" width="1" height="1" fill="#bdb7a4"/><rect x="9" y="4" width="1" height="1" fill="#bdb7a4"/><rect x="6" y="5" width="1" height="1" fill="#bdb7a4"/><rect x="9" y="5" width="1" height="1" fill="#bdb7a4"/><rect x="6" y="6" width="1" height="1" fill="#bdb7a4"/><rect x="9" y="6" width="1" height="1" fill="#bdb7a4"/><rect x="6" y="7" width="1" height="1" fill="#bdb7a4"/><rect x="9" y="7" width="1" height="1" fill="#bdb7a4"/><rect x="6" y="8" width="1" height="1" fill="#bdb7a4"/><rect x="9" y="8" width="1" height="1" fill="#bdb7a4"/><rect x="6" y="9" width="1" height="1" fill="#bdb7a4"/><rect x="9" y="9" width="1" height="1" fill="#bdb7a4"/><rect x="6" y="10" width="1" height="1" fill="#bdb7a4"/><rect x="9" y="10" width="1" height="1" fill="#bdb7a4"/><rect x="7" y="3" width="2" height="1" fill="#3a3524"/><rect x="7" y="4" width="2" height="1" fill="#3a3524"/><rect x="7" y="5" width="2" height="1" fill="#3a3524"/><rect x="7" y="6" width="2" height="1" fill="#e8453c"/><rect x="7" y="7" width="2" height="1" fill="#e8453c"/><rect x="7" y="8" width="2" height="1" fill="#e8453c"/><rect x="7" y="9" width="2" height="1" fill="#e8453c"/><rect x="7" y="10" width="2" height="1" fill="#e8453c"/><rect x="6" y="11" width="4" height="1" fill="#e8453c"/><rect x="5" y="12" width="6" height="1" fill="#e8453c"/><rect x="5" y="13" width="6" height="1" fill="#e8453c"/><rect x="6" y="14" width="4" height="1" fill="#e8453c"/><rect x="6" y="12" width="1" height="1" fill="#bdb7a4"/><rect x="11" y="4" width="2" height="1" fill="#c9a227"/><rect x="11" y="7" width="2" height="1" fill="#c9a227"/><rect x="11" y="10" width="2" height="1" fill="#c9a227"/></svg>