<svg xmlns="http://www.w3.org/2000/svg" viewBox="0 0 16 16" shape-rendering="crispEdges" role="img"><defs><linearGradient id="g_disparity" x1="0" y1="0" x2="1" y2="1"><stop offset="0" stop-color="#12212e"/><stop offset="1" stop-color="#1b2c3c"/></linearGradient></defs><rect width="16" height="16" fill="url(#g_disparity)"/><rect x="2" y="3" width="1" height="1" fill="#3d4f5e"/><rect x="11" y="3" width="3" height="1" fill="#5ec8f0"/><rect x="2" y="4" width="1" height="1" fill="#3d4f5e"/><rect x="2" y="5" width="1" height="1" fill="#3d4f5e"/><rect x="9" y="5" width="2" height="1" fill="#5ec8f0"/><rect x="2" y="6" width="1" height="1" fill="#3d4f5e"/><rect x="7" y="6" width="2" height="1" fill="#5ec8f0"/><rect x="2" y="7" width="1" height="1" fill="#3d4f5e"/><rect x="2" y="8" width="1" height="1" fill="#3d4f5e"/><rect x="5" y="8" width="2" height="1" fill="#5ec8f0"/><rect x="2" y="9" width="1" height="1" fill="#3d4f5e"/><rect x="3" y="9" width="2" height="1" fill="#5ec8f0"/><rect x="2" y="10" width="1" height="1" fill="#3d4f5e"/><rect x="3" y="10" width="11" height="1" fill="#f0b05e"/><rect x="2" y="11" width="1" height="1" fill="#3d4f5e"/><rect x="2" y="12" width="12" height="1" fill="#3d4f5e"/></svg>