<svg xmlns="http://www.w3.org/2000/svg" viewBox="0 0 16 16" shape-rendering="crispEdges" role="img"><defs><linearGradient id="g_festa" x1="0" y1="0" x2="1" y2="1"><stop offset="0" stop-color="#241426"/><stop offset="1" stop-color="#331c33"/></linearGradient></defs><rect width="16" height="16" fill="url(#g_festa)"/><rect x="7" y="1" width="2" height="1" fill="#f5e6c8"/><rect x="7" y="2" width="2" height="1" fill="#f5e6c8"/><rect x="7" y="3" width="2" height="1" fill="#d8c9a8"/><rect x="7" y="4" width="2" height="1" fill="#d8c9a8"/><rect x="7" y="5" width="2" height="1" fill="#d8c9a8"/><rect x="7" y="6" width="2" height="1" fill="#d8c9a8"/><rect x="7" y="7" width="2" height="1" fill="#d8c9a8"/><rect x="5" y="8" width="6" height="1" fill="#e8734d"/><rect x="5" y="9" width="6" height="1" fill="#e8734d"/><rect x="6" y="10" width="4" height="1" fill="#e8734d"/><rect x="4" y="11" width="8" height="1" fill="#e8734d"/><rect x="4" y="12" width="3" height="1" fill="#e8734d"/><rect x="7" y="12" width="2" height="1" fill="#3a2a1e"/><rect x="9" y="12" width="3" height="1" fill="#e8734d"/><rect x="4" y="13" width="8" height="1" fill="#e8734d"/><rect x="5" y="14" width="6" height="1" fill="#e8734d"/></svg>