<svg xmlns="http://www.w3.org/2000/svg" viewBox="0 0 16 16" shape-rendering="crispEdges" role="img"><defs><linearGradient id="g_rs" x1="0" y1="0" x2="1" y2="1"><stop offset="0" stop-color="#141f14"/><stop offset="1" stop-color="#1e2b1c"/></linearGradient></defs><rect width="16" height="16" fill="url(#g_rs)"/><rect x="2" y="3" width="1" height="1" fill="#3a4a38"/><rect x="2" y="4" width="1" height="1" fill="#3a4a38"/><rect x="9" y="4" width="2" height="1" fill="#7fe06a"/><rect x="2" y="5" width="1" height="1" fill="#3a4a38"/><rect x="9" y="5" width="2" height="1" fill="#7fe06a"/><rect x="2" y="6" width="1" height="1" fill="#3a4a38"/><rect x="9" y="6" width="2" height="1" fill="#7fe06a"/><rect x="2" y="7" width="1" height="1" fill="#3a4a38"/><rect x="6" y="7" width="2" height="1" fill="#6f8a63"/><rect x="9" y="7" width="2" height="1" fill="#7fe06a"/><rect x="2" y="8" width="1" height="1" fill="#3a4a38"/><rect x="6" y="8" width="2" height="1" fill="#6f8a63"/><rect x="9" y="8" width="2" height="1" fill="#7fe06a"/><rect x="2" y="9" width="1" height="1" fill="#3a4a38"/><rect x="3" y="9" width="2" height="1" fill="#6f8a63"/><rect x="6" y="9" width="2" height="1" fill="#6f8a63"/><rect x="9" y="9" width="2" height="1" fill="#7fe06a"/><rect x="2" y="10" width="1" height="1" fill="#3a4a38"/><rect x="3" y="10" width="2" height="1" fill="#6f8a63"/><rect x="6" y="10" width="2" height="1" fill="#6f8a63"/><rect x="9" y="10" width="2" height="1" fill="#7fe06a"/><rect x="2" y="11" width="1" height="1" fill="#3a4a38"/><rect x="3" y="11" width="2" height="1" fill="#6f8a63"/><rect x="6" y="11" width="2" height="1" fill="#6f8a63"/><rect x="9" y="11" width="2" height="1" fill="#7fe06a"/><rect x="2" y="12" width="12" height="1" fill="#3a4a38"/></svg>