<svg xmlns="http://www.w3.org/2000/svg" viewBox="0 0 16 16" shape-rendering="crispEdges" role="img"><defs><linearGradient id="g_aiagent" x1="0" y1="0" x2="1" y2="1"><stop offset="0" stop-color="#141826"/><stop offset="1" stop-color="#252d45"/></linearGradient></defs><rect width="16" height="16" fill="url(#g_aiagent)"/><rect x="7" y="2" width="2" height="1" fill="#8fa3c0"/><rect x="7" y="3" width="2" height="1" fill="#8fa3c0"/><rect x="3" y="4" width="10" height="1" fill="#8fa3c0"/><rect x="3" y="5" width="10" height="1" fill="#8fa3c0"/><rect x="3" y="6" width="2" height="1" fill="#8fa3c0"/><rect x="5" y="6" width="2" height="1" fill="#6ce8ff"/><rect x="7" y="6" width="2" height="1" fill="#8fa3c0"/><rect x="9" y="6" width="2" height="1" fill="#6ce8ff"/><rect x="11" y="6" width="2" height="1" fill="#8fa3c0"/><rect x="3" y="7" width="2" height="1" fill="#8fa3c0"/><rect x="5" y="7" width="2" height="1" fill="#6ce8ff"/><rect x="7" y="7" width="2" height="1" fill="#8fa3c0"/><rect x="9" y="7" width="2" height="1" fill="#6ce8ff"/><rect x="11" y="7" width="2" height="1" fill="#8fa3c0"/><rect x="3" y="8" width="10" height="1" fill="#8fa3c0"/><rect x="3" y="9" width="2" height="1" fill="#8fa3c0"/><rect x="5" y="9" width="6" height="1" fill="#3d4a5c"/><rect x="11" y="9" width="2" height="1" fill="#8fa3c0"/><rect x="3" y="10" width="10" height="1" fill="#8fa3c0"/><rect x="4" y="11" width="8" height="1" fill="#8fa3c0"/><rect x="6" y="12" width="4" height="1" fill="#8fa3c0"/></svg>