<svg xmlns="http://www.w3.org/2000/svg" viewBox="0 0 16 16" shape-rendering="crispEdges" role="img"><defs><linearGradient id="g_celltower" x1="0" y1="0" x2="1" y2="1"><stop offset="0" stop-color="#0f1b2a"/><stop offset="1" stop-color="#1a2436"/></linearGradient></defs><rect width="16" height="16" fill="url(#g_celltower)"/><rect x="6" y="1" width="4" height="1" fill="#c2cad6"/><rect x="3" y="2" width="1" height="1" fill="#45c8e0"/><rect x="6" y="2" width="4" height="1" fill="#c2cad6"/><rect x="12" y="2" width="1" height="1" fill="#45c8e0"/><rect x="2" y="3" width="1" height="1" fill="#45c8e0"/><rect x="6" y="3" width="1" height="1" fill="#c2cad6"/><rect x="7" y="3" width="2" height="1" fill="#eef2f7"/><rect x="9" y="3" width="1" height="1" fill="#c2cad6"/><rect x="13" y="3" width="1" height="1" fill="#45c8e0"/><rect x="5" y="4" width="2" height="1" fill="#c2cad6"/><rect x="9" y="4" width="2" height="1" fill="#c2cad6"/><rect x="5" y="5" width="1" height="1" fill="#c2cad6"/><rect x="10" y="5" width="1" height="1" fill="#c2cad6"/><rect x="5" y="6" width="1" height="1" fill="#c2cad6"/><rect x="6" y="6" width="1" height="1" fill="#727b88"/><rect x="9" y="6" width="1" height="1" fill="#727b88"/><rect x="10" y="6" width="1" height="1" fill="#c2cad6"/><rect x="5" y="7" width="1" height="1" fill="#c2cad6"/><rect x="7" y="7" width="2" height="1" fill="#727b88"/><rect x="10" y="7" width="1" height="1" fill="#c2cad6"/><rect x="5" y="8" width="1" height="1" fill="#c2cad6"/><rect x="6" y="8" width="1" height="1" fill="#727b88"/><rect x="9" y="8" width="1" height="1" fill="#727b88"/><rect x="10" y="8" width="1" height="1" fill="#c2cad6"/><rect x="5" y="9" width="1" height="1" fill="#c2cad6"/><rect x="7" y="9" width="2" height="1" fill="#727b88"/><rect x="10" y="9" width="1" height="1" fill="#c2cad6"/><rect x="5" y="10" width="1" height="1" fill="#c2cad6"/><rect x="6" y="10" width="1" height="1" fill="#727b88"/><rect x="9" y="10" width="1" height="1" fill="#727b88"/><rect x="10" y="10" width="1" height="1" fill="#c2cad6"/><rect x="5" y="11" width="1" height="1" fill="#c2cad6"/><rect x="7" y="11" width="2" height="1" fill="#727b88"/><rect x="10" y="11" width="1" height="1" fill="#c2cad6"/><rect x="5" y="12" width="1" height="1" fill="#c2cad6"/><rect x="10" y="12" width="1" height="1" fill="#c2cad6"/><rect x="4" y="13" width="1" height="1" fill="#c2cad6"/><rect x="11" y="13" width="1" height="1" fill="#c2cad6"/><rect x="3" y="14" width="1" height="1" fill="#c2cad6"/><rect x="12" y="14" width="1" height="1" fill="#c2cad6"/></svg>