<svg xmlns="http://www.w3.org/2000/svg" viewBox="0 0 16 16" shape-rendering="crispEdges" role="img"><defs><linearGradient id="g_cooling" x1="0" y1="0" x2="1" y2="1"><stop offset="0" stop-color="#0e2a3a"/><stop offset="1" stop-color="#17506b"/></linearGradient></defs><rect width="16" height="16" fill="url(#g_cooling)"/><rect x="7" y="1" width="2" height="1" fill="#bfe9ff"/><rect x="7" y="2" width="2" height="1" fill="#bfe9ff"/><rect x="3" y="3" width="1" height="1" fill="#bfe9ff"/><rect x="7" y="3" width="2" height="1" fill="#bfe9ff"/><rect x="12" y="3" width="1" height="1" fill="#bfe9ff"/><rect x="4" y="4" width="1" height="1" fill="#bfe9ff"/><rect x="7" y="4" width="2" height="1" fill="#bfe9ff"/><rect x="11" y="4" width="1" height="1" fill="#bfe9ff"/><rect x="5" y="5" width="1" height="1" fill="#bfe9ff"/><rect x="7" y="5" width="2" height="1" fill="#bfe9ff"/><rect x="10" y="5" width="1" height="1" fill="#bfe9ff"/><rect x="6" y="6" width="4" height="1" fill="#bfe9ff"/><rect x="1" y="7" width="14" height="1" fill="#bfe9ff"/><rect x="1" y="8" width="14" height="1" fill="#bfe9ff"/><rect x="6" y="9" width="4" height="1" fill="#bfe9ff"/><rect x="5" y="10" width="1" height="1" fill="#bfe9ff"/><rect x="7" y="10" width="2" height="1" fill="#bfe9ff"/><rect x="10" y="10" width="1" height="1" fill="#bfe9ff"/><rect x="4" y="11" width="1" height="1" fill="#bfe9ff"/><rect x="7" y="11" width="2" height="1" fill="#bfe9ff"/><rect x="11" y="11" width="1" height="1" fill="#bfe9ff"/><rect x="3" y="12" width="1" height="1" fill="#bfe9ff"/><rect x="7" y="12" width="2" height="1" fill="#bfe9ff"/><rect x="12" y="12" width="1" height="1" fill="#bfe9ff"/><rect x="7" y="13" width="2" height="1" fill="#bfe9ff"/><rect x="7" y="14" width="2" height="1" fill="#bfe9ff"/></svg>