<svg xmlns="http://www.w3.org/2000/svg" viewBox="0 0 16 16" shape-rendering="crispEdges" role="img"><defs><linearGradient id="g_daeduk" x1="0" y1="0" x2="1" y2="1"><stop offset="0" stop-color="#0d2018"/><stop offset="1" stop-color="#123a28"/></linearGradient></defs><rect width="16" height="16" fill="url(#g_daeduk)"/><rect x="2" y="3" width="12" height="1" fill="#1f7a4e"/><rect x="2" y="4" width="12" height="1" fill="#1f7a4e"/><rect x="2" y="5" width="1" height="1" fill="#1f7a4e"/><rect x="3" y="5" width="4" height="1" fill="#16241f"/><rect x="7" y="5" width="2" height="1" fill="#1f7a4e"/><rect x="9" y="5" width="4" height="1" fill="#16241f"/><rect x="13" y="5" width="1" height="1" fill="#1f7a4e"/><rect x="2" y="6" width="1" height="1" fill="#1f7a4e"/><rect x="3" y="6" width="4" height="1" fill="#16241f"/><rect x="7" y="6" width="2" height="1" fill="#1f7a4e"/><rect x="9" y="6" width="4" height="1" fill="#16241f"/><rect x="13" y="6" width="1" height="1" fill="#1f7a4e"/><rect x="2" y="7" width="12" height="1" fill="#1f7a4e"/><rect x="2" y="8" width="1" height="1" fill="#1f7a4e"/><rect x="3" y="8" width="2" height="1" fill="#f0cc7a"/><rect x="5" y="8" width="2" height="1" fill="#1f7a4e"/><rect x="7" y="8" width="2" height="1" fill="#f0cc7a"/><rect x="9" y="8" width="2" height="1" fill="#1f7a4e"/><rect x="11" y="8" width="2" height="1" fill="#f0cc7a"/><rect x="13" y="8" width="1" height="1" fill="#1f7a4e"/><rect x="2" y="9" width="12" height="1" fill="#1f7a4e"/><rect x="2" y="10" width="1" height="1" fill="#1f7a4e"/><rect x="3" y="10" width="4" height="1" fill="#16241f"/><rect x="7" y="10" width="2" height="1" fill="#1f7a4e"/><rect x="9" y="10" width="4" height="1" fill="#16241f"/><rect x="13" y="10" width="1" height="1" fill="#1f7a4e"/><rect x="2" y="11" width="1" height="1" fill="#1f7a4e"/><rect x="3" y="11" width="4" height="1" fill="#16241f"/><rect x="7" y="11" width="2" height="1" fill="#1f7a4e"/><rect x="9" y="11" width="4" height="1" fill="#16241f"/><rect x="13" y="11" width="1" height="1" fill="#1f7a4e"/><rect x="2" y="12" width="12" height="1" fill="#1f7a4e"/><rect x="2" y="13" width="2" height="1" fill="#e6b756"/><rect x="5" y="13" width="2" height="1" fill="#e6b756"/><rect x="8" y="13" width="2" height="1" fill="#e6b756"/><rect x="11" y="13" width="2" height="1" fill="#e6b756"/></svg>