<svg xmlns="http://www.w3.org/2000/svg" viewBox="0 0 16 16" shape-rendering="crispEdges" role="img"><defs><linearGradient id="g_datacenter" x1="0" y1="0" x2="1" y2="1"><stop offset="0" stop-color="#131820"/><stop offset="1" stop-color="#242c3a"/></linearGradient></defs><rect width="16" height="16" fill="url(#g_datacenter)"/><rect x="3" y="1" width="10" height="1" fill="#5a6474"/><rect x="3" y="2" width="1" height="1" fill="#5a6474"/><rect x="4" y="2" width="7" height="1" fill="#8c96a6"/><rect x="11" y="2" width="1" height="1" fill="#5ce08a"/><rect x="12" y="2" width="1" height="1" fill="#5a6474"/><rect x="3" y="3" width="1" height="1" fill="#5a6474"/><rect x="4" y="3" width="8" height="1" fill="#8c96a6"/><rect x="12" y="3" width="1" height="1" fill="#5a6474"/><rect x="3" y="4" width="1" height="1" fill="#5a6474"/><rect x="4" y="4" width="8" height="1" fill="#2b323d"/><rect x="12" y="4" width="1" height="1" fill="#5a6474"/><rect x="3" y="5" width="1" height="1" fill="#5a6474"/><rect x="4" y="5" width="7" height="1" fill="#8c96a6"/><rect x="11" y="5" width="1" height="1" fill="#5ce08a"/><rect x="12" y="5" width="1" height="1" fill="#5a6474"/><rect x="3" y="6" width="1" height="1" fill="#5a6474"/><rect x="4" y="6" width="8" height="1" fill="#8c96a6"/><rect x="12" y="6" width="1" height="1" fill="#5a6474"/><rect x="3" y="7" width="1" height="1" fill="#5a6474"/><rect x="4" y="7" width="8" height="1" fill="#2b323d"/><rect x="12" y="7" width="1" height="1" fill="#5a6474"/><rect x="3" y="8" width="1" height="1" fill="#5a6474"/><rect x="4" y="8" width="7" height="1" fill="#8c96a6"/><rect x="11" y="8" width="1" height="1" fill="#5ce08a"/><rect x="12" y="8" width="1" height="1" fill="#5a6474"/><rect x="3" y="9" width="1" height="1" fill="#5a6474"/><rect x="4" y="9" width="8" height="1" fill="#8c96a6"/><rect x="12" y="9" width="1" height="1" fill="#5a6474"/><rect x="3" y="10" width="1" height="1" fill="#5a6474"/><rect x="4" y="10" width="8" height="1" fill="#2b323d"/><rect x="12" y="10" width="1" height="1" fill="#5a6474"/><rect x="3" y="11" width="1" height="1" fill="#5a6474"/><rect x="4" y="11" width="7" height="1" fill="#8c96a6"/><rect x="11" y="11" width="1" height="1" fill="#5ce08a"/><rect x="12" y="11" width="1" height="1" fill="#5a6474"/><rect x="3" y="12" width="1" height="1" fill="#5a6474"/><rect x="4" y="12" width="8" height="1" fill="#8c96a6"/><rect x="12" y="12" width="1" height="1" fill="#5a6474"/><rect x="3" y="13" width="10" height="1" fill="#5a6474"/><rect x="3" y="14" width="2" height="1" fill="#5a6474"/><rect x="11" y="14" width="2" height="1" fill="#5a6474"/></svg>