<svg xmlns="http://www.w3.org/2000/svg" viewBox="0 0 16 16" shape-rendering="crispEdges" role="img"><defs><linearGradient id="g_dongkook" x1="0" y1="0" x2="1" y2="1"><stop offset="0" stop-color="#12281f"/><stop offset="1" stop-color="#1d4433"/></linearGradient></defs><rect width="16" height="16" fill="url(#g_dongkook)"/><rect x="6" y="1" width="4" height="1" fill="#2b8a63"/><rect x="6" y="2" width="4" height="1" fill="#2b8a63"/><rect x="5" y="3" width="6" height="1" fill="#eef2f7"/><rect x="4" y="4" width="8" height="1" fill="#eef2f7"/><rect x="4" y="5" width="8" height="1" fill="#eef2f7"/><rect x="4" y="6" width="1" height="1" fill="#eef2f7"/><rect x="5" y="6" width="6" height="1" fill="#3fa06e"/><rect x="11" y="6" width="1" height="1" fill="#eef2f7"/><rect x="4" y="7" width="1" height="1" fill="#eef2f7"/><rect x="5" y="7" width="6" height="1" fill="#3fa06e"/><rect x="11" y="7" width="1" height="1" fill="#eef2f7"/><rect x="4" y="8" width="1" height="1" fill="#eef2f7"/><rect x="5" y="8" width="6" height="1" fill="#3fa06e"/><rect x="11" y="8" width="1" height="1" fill="#eef2f7"/><rect x="4" y="9" width="8" height="1" fill="#eef2f7"/><rect x="4" y="10" width="8" height="1" fill="#eef2f7"/><rect x="4" y="11" width="8" height="1" fill="#eef2f7"/><rect x="4" y="12" width="8" height="1" fill="#b9c3ce"/><rect x="4" y="13" width="1" height="1" fill="#b9c3ce"/><rect x="6" y="13" width="1" height="1" fill="#b9c3ce"/><rect x="8" y="13" width="1" height="1" fill="#b9c3ce"/><rect x="10" y="13" width="1" height="1" fill="#b9c3ce"/></svg>