<svg xmlns="http://www.w3.org/2000/svg" viewBox="0 0 16 16" shape-rendering="crispEdges" role="img"><defs><linearGradient id="g_hbf" x1="0" y1="0" x2="1" y2="1"><stop offset="0" stop-color="#291c0d"/><stop offset="1" stop-color="#513418"/></linearGradient></defs><rect width="16" height="16" fill="url(#g_hbf)"/><rect x="3" y="2" width="10" height="1" fill="#f0c078"/><rect x="3" y="3" width="10" height="1" fill="#f0c078"/><rect x="3" y="4" width="10" height="1" fill="#5c3a12"/><rect x="3" y="5" width="10" height="1" fill="#f0c078"/><rect x="3" y="6" width="10" height="1" fill="#f0c078"/><rect x="3" y="7" width="10" height="1" fill="#5c3a12"/><rect x="3" y="8" width="10" height="1" fill="#f0c078"/><rect x="3" y="9" width="10" height="1" fill="#f0c078"/><rect x="3" y="10" width="10" height="1" fill="#5c3a12"/><rect x="3" y="11" width="10" height="1" fill="#b07830"/><rect x="3" y="12" width="10" height="1" fill="#b07830"/><rect x="2" y="13" width="12" height="1" fill="#3a2a18"/><rect x="2" y="14" width="2" height="1" fill="#e8d84b"/><rect x="5" y="14" width="2" height="1" fill="#e8d84b"/><rect x="8" y="14" width="2" height="1" fill="#e8d84b"/><rect x="11" y="14" width="2" height="1" fill="#e8d84b"/></svg>