<svg xmlns="http://www.w3.org/2000/svg" viewBox="0 0 16 16" shape-rendering="crispEdges" role="img"><defs><linearGradient id="g_hugel" x1="0" y1="0" x2="1" y2="1"><stop offset="0" stop-color="#1f2b45"/><stop offset="1" stop-color="#33436b"/></linearGradient></defs><rect width="16" height="16" fill="url(#g_hugel)"/><rect x="2" y="5" width="1" height="1" fill="#cfd8e6"/><rect x="2" y="6" width="1" height="1" fill="#cfd8e6"/><rect x="6" y="6" width="7" height="1" fill="#cfd8e6"/><rect x="2" y="7" width="4" height="1" fill="#cfd8e6"/><rect x="6" y="7" width="4" height="1" fill="#c9a7e8"/><rect x="10" y="7" width="3" height="1" fill="#eef2f8"/><rect x="13" y="7" width="1" height="1" fill="#9aa4b2"/><rect x="14" y="7" width="2" height="1" fill="#e3e9f2"/><rect x="2" y="8" width="4" height="1" fill="#cfd8e6"/><rect x="6" y="8" width="4" height="1" fill="#c9a7e8"/><rect x="10" y="8" width="3" height="1" fill="#eef2f8"/><rect x="13" y="8" width="1" height="1" fill="#9aa4b2"/><rect x="14" y="8" width="2" height="1" fill="#e3e9f2"/><rect x="2" y="9" width="1" height="1" fill="#cfd8e6"/><rect x="6" y="9" width="7" height="1" fill="#cfd8e6"/><rect x="2" y="10" width="1" height="1" fill="#cfd8e6"/></svg>