<svg xmlns="http://www.w3.org/2000/svg" viewBox="0 0 16 16" shape-rendering="crispEdges" role="img"><defs><linearGradient id="g_hugel" x1="0" y1="0" x2="1" y2="1"><stop offset="0" stop-color="#12233d"/><stop offset="1" stop-color="#1d3f63"/></linearGradient></defs><rect width="16" height="16" fill="url(#g_hugel)"/><rect x="6" y="2" width="4" height="1" fill="#8fb8e8"/><rect x="6" y="3" width="4" height="1" fill="#8fb8e8"/><rect x="6" y="4" width="4" height="1" fill="#cfe3f5"/><rect x="5" y="5" width="6" height="1" fill="#cfe3f5"/><rect x="5" y="6" width="1" height="1" fill="#cfe3f5"/><rect x="10" y="6" width="1" height="1" fill="#cfe3f5"/><rect x="5" y="7" width="1" height="1" fill="#cfe3f5"/><rect x="10" y="7" width="1" height="1" fill="#cfe3f5"/><rect x="5" y="8" width="1" height="1" fill="#cfe3f5"/><rect x="6" y="8" width="4" height="1" fill="#5aa9e6"/><rect x="10" y="8" width="1" height="1" fill="#cfe3f5"/><rect x="5" y="9" width="1" height="1" fill="#cfe3f5"/><rect x="6" y="9" width="4" height="1" fill="#5aa9e6"/><rect x="10" y="9" width="1" height="1" fill="#cfe3f5"/><rect x="5" y="10" width="1" height="1" fill="#cfe3f5"/><rect x="6" y="10" width="4" height="1" fill="#5aa9e6"/><rect x="10" y="10" width="1" height="1" fill="#cfe3f5"/><rect x="5" y="11" width="1" height="1" fill="#cfe3f5"/><rect x="6" y="11" width="4" height="1" fill="#5aa9e6"/><rect x="10" y="11" width="1" height="1" fill="#cfe3f5"/><rect x="5" y="12" width="1" height="1" fill="#cfe3f5"/><rect x="6" y="12" width="4" height="1" fill="#5aa9e6"/><rect x="10" y="12" width="1" height="1" fill="#cfe3f5"/><rect x="5" y="13" width="6" height="1" fill="#cfe3f5"/></svg>