<svg xmlns="http://www.w3.org/2000/svg" viewBox="0 0 16 16" shape-rendering="crispEdges" role="img"><defs><linearGradient id="g_intekplus" x1="0" y1="0" x2="1" y2="1"><stop offset="0" stop-color="#111c2c"/><stop offset="1" stop-color="#1b2c44"/></linearGradient></defs><rect width="16" height="16" fill="url(#g_intekplus)"/><rect x="7" y="1" width="2" height="1" fill="#8ea3bd"/><rect x="4" y="2" width="8" height="1" fill="#8ea3bd"/><rect x="4" y="3" width="8" height="1" fill="#8ea3bd"/><rect x="4" y="4" width="2" height="1" fill="#8ea3bd"/><rect x="6" y="4" width="4" height="1" fill="#2b3a52"/><rect x="10" y="4" width="2" height="1" fill="#8ea3bd"/><rect x="4" y="5" width="2" height="1" fill="#8ea3bd"/><rect x="6" y="5" width="4" height="1" fill="#2b3a52"/><rect x="10" y="5" width="2" height="1" fill="#8ea3bd"/><rect x="5" y="6" width="6" height="1" fill="#ffe08a"/><rect x="4" y="7" width="8" height="1" fill="#ffe08a"/><rect x="2" y="8" width="12" height="1" fill="#7fd6c0"/><rect x="2" y="9" width="12" height="1" fill="#7fd6c0"/><rect x="2" y="10" width="12" height="1" fill="#5a6a7d"/><rect x="3" y="11" width="2" height="1" fill="#8d9bb0"/><rect x="8" y="11" width="2" height="1" fill="#8d9bb0"/><rect x="13" y="11" width="2" height="1" fill="#8d9bb0"/></svg>