<svg xmlns="http://www.w3.org/2000/svg" viewBox="0 0 16 16" shape-rendering="crispEdges" role="img"><defs><linearGradient id="g_intekplus" x1="0" y1="0" x2="1" y2="1"><stop offset="0" stop-color="#101a26"/><stop offset="1" stop-color="#1b3350"/></linearGradient></defs><rect width="16" height="16" fill="url(#g_intekplus)"/><rect x="6" y="0" width="2" height="1" fill="#6ce8ff"/><rect x="6" y="1" width="2" height="1" fill="#6ce8ff"/><rect x="6" y="2" width="2" height="1" fill="#aebfd4"/><rect x="8" y="2" width="1" height="1" fill="#5a6c85"/><rect x="9" y="2" width="1" height="1" fill="#aebfd4"/><rect x="4" y="3" width="1" height="1" fill="#aebfd4"/><rect x="5" y="3" width="1" height="1" fill="#5a6c85"/><rect x="6" y="3" width="2" height="1" fill="#aebfd4"/><rect x="8" y="3" width="1" height="1" fill="#5a6c85"/><rect x="9" y="3" width="2" height="1" fill="#aebfd4"/><rect x="11" y="3" width="1" height="1" fill="#5a6c85"/><rect x="3" y="4" width="2" height="1" fill="#aebfd4"/><rect x="5" y="4" width="1" height="1" fill="#5a6c85"/><rect x="6" y="4" width="2" height="1" fill="#aebfd4"/><rect x="8" y="4" width="1" height="1" fill="#5a6c85"/><rect x="9" y="4" width="2" height="1" fill="#aebfd4"/><rect x="11" y="4" width="1" height="1" fill="#5a6c85"/><rect x="12" y="4" width="1" height="1" fill="#aebfd4"/><rect x="2" y="5" width="12" height="1" fill="#5a6c85"/><rect x="2" y="6" width="3" height="1" fill="#aebfd4"/><rect x="5" y="6" width="1" height="1" fill="#5a6c85"/><rect x="6" y="6" width="2" height="1" fill="#6ce8ff"/><rect x="8" y="6" width="1" height="1" fill="#5a6c85"/><rect x="9" y="6" width="2" height="1" fill="#aebfd4"/><rect x="11" y="6" width="1" height="1" fill="#5a6c85"/><rect x="12" y="6" width="2" height="1" fill="#aebfd4"/><rect x="2" y="7" width="3" height="1" fill="#aebfd4"/><rect x="5" y="7" width="1" height="1" fill="#5a6c85"/><rect x="6" y="7" width="2" height="1" fill="#6ce8ff"/><rect x="8" y="7" width="1" height="1" fill="#5a6c85"/><rect x="9" y="7" width="2" height="1" fill="#aebfd4"/><rect x="11" y="7" width="1" height="1" fill="#5a6c85"/><rect x="12" y="7" width="2" height="1" fill="#aebfd4"/><rect x="2" y="8" width="12" height="1" fill="#5a6c85"/><rect x="2" y="9" width="3" height="1" fill="#aebfd4"/><rect x="5" y="9" width="1" height="1" fill="#5a6c85"/><rect x="6" y="9" width="2" height="1" fill="#aebfd4"/><rect x="8" y="9" width="1" height="1" fill="#5a6c85"/><rect x="9" y="9" width="2" height="1" fill="#aebfd4"/><rect x="11" y="9" width="1" height="1" fill="#5a6c85"/><rect x="12" y="9" width="2" height="1" fill="#aebfd4"/><rect x="2" y="10" width="3" height="1" fill="#aebfd4"/><rect x="5" y="10" width="1" height="1" fill="#5a6c85"/><rect x="6" y="10" width="2" height="1" fill="#aebfd4"/><rect x="8" y="10" width="1" height="1" fill="#5a6c85"/><rect x="9" y="10" width="2" height="1" fill="#aebfd4"/><rect x="11" y="10" width="1" height="1" fill="#5a6c85"/><rect x="12" y="10" width="2" height="1" fill="#aebfd4"/><rect x="3" y="11" width="10" height="1" fill="#5a6c85"/><rect x="4" y="12" width="1" height="1" fill="#aebfd4"/><rect x="5" y="12" width="1" height="1" fill="#5a6c85"/><rect x="6" y="12" width="2" height="1" fill="#aebfd4"/><rect x="8" y="12" width="1" height="1" fill="#5a6c85"/><rect x="9" y="12" width="2" height="1" fill="#aebfd4"/><rect x="11" y="12" width="1" height="1" fill="#5a6c85"/><rect x="6" y="13" width="2" height="1" fill="#aebfd4"/><rect x="8" y="13" width="1" height="1" fill="#5a6c85"/><rect x="9" y="13" width="1" height="1" fill="#aebfd4"/></svg>