<svg xmlns="http://www.w3.org/2000/svg" viewBox="0 0 16 16" shape-rendering="crispEdges" role="img"><defs><linearGradient id="g_intekplus" x1="0" y1="0" x2="1" y2="1"><stop offset="0" stop-color="#10303a"/><stop offset="1" stop-color="#1a5566"/></linearGradient></defs><rect width="16" height="16" fill="url(#g_intekplus)"/><rect x="5" y="2" width="3" height="1" fill="#e0e6ee"/><rect x="3" y="3" width="2" height="1" fill="#e0e6ee"/><rect x="5" y="3" width="3" height="1" fill="#7fd4e8"/><rect x="8" y="3" width="2" height="1" fill="#e0e6ee"/><rect x="2" y="4" width="1" height="1" fill="#e0e6ee"/><rect x="3" y="4" width="7" height="1" fill="#7fd4e8"/><rect x="10" y="4" width="1" height="1" fill="#e0e6ee"/><rect x="2" y="5" width="1" height="1" fill="#e0e6ee"/><rect x="3" y="5" width="2" height="1" fill="#7fd4e8"/><rect x="5" y="5" width="3" height="1" fill="#2f3b4d"/><rect x="8" y="5" width="2" height="1" fill="#7fd4e8"/><rect x="10" y="5" width="1" height="1" fill="#e0e6ee"/><rect x="2" y="6" width="1" height="1" fill="#e0e6ee"/><rect x="3" y="6" width="2" height="1" fill="#7fd4e8"/><rect x="5" y="6" width="3" height="1" fill="#2f3b4d"/><rect x="8" y="6" width="2" height="1" fill="#7fd4e8"/><rect x="10" y="6" width="1" height="1" fill="#e0e6ee"/><rect x="2" y="7" width="1" height="1" fill="#e0e6ee"/><rect x="3" y="7" width="2" height="1" fill="#7fd4e8"/><rect x="5" y="7" width="3" height="1" fill="#2f3b4d"/><rect x="8" y="7" width="2" height="1" fill="#7fd4e8"/><rect x="10" y="7" width="1" height="1" fill="#e0e6ee"/><rect x="2" y="8" width="1" height="1" fill="#e0e6ee"/><rect x="3" y="8" width="7" height="1" fill="#7fd4e8"/><rect x="10" y="8" width="1" height="1" fill="#e0e6ee"/><rect x="3" y="9" width="2" height="1" fill="#e0e6ee"/><rect x="5" y="9" width="3" height="1" fill="#7fd4e8"/><rect x="8" y="9" width="2" height="1" fill="#e0e6ee"/><rect x="5" y="10" width="3" height="1" fill="#e0e6ee"/><rect x="10" y="10" width="2" height="1" fill="#b9c2cf"/><rect x="11" y="11" width="2" height="1" fill="#b9c2cf"/><rect x="12" y="12" width="2" height="1" fill="#b9c2cf"/></svg>