<svg xmlns="http://www.w3.org/2000/svg" viewBox="0 0 16 16" shape-rendering="crispEdges" role="img"><defs><linearGradient id="g_mega" x1="0" y1="0" x2="1" y2="1"><stop offset="0" stop-color="#14203a"/><stop offset="1" stop-color="#22335c"/></linearGradient></defs><rect width="16" height="16" fill="url(#g_mega)"/><rect x="6" y="3" width="4" height="1" fill="#9fb0c4"/><rect x="6" y="4" width="1" height="1" fill="#9fb0c4"/><rect x="7" y="4" width="2" height="1" fill="#ffd479"/><rect x="9" y="4" width="1" height="1" fill="#9fb0c4"/><rect x="6" y="5" width="4" height="1" fill="#9fb0c4"/><rect x="2" y="6" width="5" height="1" fill="#9fb0c4"/><rect x="7" y="6" width="2" height="1" fill="#ffd479"/><rect x="9" y="6" width="1" height="1" fill="#9fb0c4"/><rect x="2" y="7" width="1" height="1" fill="#9fb0c4"/><rect x="3" y="7" width="2" height="1" fill="#ffd479"/><rect x="5" y="7" width="2" height="1" fill="#9fb0c4"/><rect x="7" y="7" width="2" height="1" fill="#ffd479"/><rect x="9" y="7" width="1" height="1" fill="#9fb0c4"/><rect x="2" y="8" width="12" height="1" fill="#9fb0c4"/><rect x="2" y="9" width="1" height="1" fill="#9fb0c4"/><rect x="3" y="9" width="2" height="1" fill="#ffd479"/><rect x="5" y="9" width="2" height="1" fill="#9fb0c4"/><rect x="7" y="9" width="2" height="1" fill="#ffd479"/><rect x="9" y="9" width="2" height="1" fill="#9fb0c4"/><rect x="11" y="9" width="2" height="1" fill="#ffd479"/><rect x="13" y="9" width="1" height="1" fill="#9fb0c4"/><rect x="2" y="10" width="12" height="1" fill="#9fb0c4"/><rect x="2" y="11" width="1" height="1" fill="#9fb0c4"/><rect x="3" y="11" width="2" height="1" fill="#ffd479"/><rect x="5" y="11" width="2" height="1" fill="#9fb0c4"/><rect x="7" y="11" width="2" height="1" fill="#ffd479"/><rect x="9" y="11" width="2" height="1" fill="#9fb0c4"/><rect x="11" y="11" width="2" height="1" fill="#ffd479"/><rect x="13" y="11" width="1" height="1" fill="#9fb0c4"/><rect x="2" y="12" width="12" height="1" fill="#9fb0c4"/><rect x="2" y="13" width="12" height="1" fill="#5a6a7d"/></svg>