<svg xmlns="http://www.w3.org/2000/svg" viewBox="0 0 16 16" shape-rendering="crispEdges" role="img"><defs><linearGradient id="g_mega" x1="0" y1="0" x2="1" y2="1"><stop offset="0" stop-color="#131b28"/><stop offset="1" stop-color="#20304a"/></linearGradient></defs><rect width="16" height="16" fill="url(#g_mega)"/><rect x="6" y="4" width="4" height="1" fill="#7fa8d8"/><rect x="6" y="5" width="4" height="1" fill="#7fa8d8"/><rect x="6" y="6" width="4" height="1" fill="#7fa8d8"/><rect x="2" y="7" width="4" height="1" fill="#5b7fb5"/><rect x="6" y="7" width="4" height="1" fill="#7fa8d8"/><rect x="2" y="8" width="4" height="1" fill="#5b7fb5"/><rect x="6" y="8" width="4" height="1" fill="#7fa8d8"/><rect x="2" y="9" width="4" height="1" fill="#5b7fb5"/><rect x="6" y="9" width="4" height="1" fill="#7fa8d8"/><rect x="10" y="9" width="4" height="1" fill="#3f5f8c"/><rect x="2" y="10" width="4" height="1" fill="#5b7fb5"/><rect x="6" y="10" width="4" height="1" fill="#7fa8d8"/><rect x="10" y="10" width="4" height="1" fill="#3f5f8c"/><rect x="2" y="11" width="4" height="1" fill="#5b7fb5"/><rect x="6" y="11" width="4" height="1" fill="#7fa8d8"/><rect x="10" y="11" width="4" height="1" fill="#3f5f8c"/><rect x="2" y="12" width="4" height="1" fill="#5b7fb5"/><rect x="6" y="12" width="4" height="1" fill="#7fa8d8"/><rect x="10" y="12" width="4" height="1" fill="#3f5f8c"/><rect x="2" y="13" width="4" height="1" fill="#5b7fb5"/><rect x="6" y="13" width="4" height="1" fill="#7fa8d8"/><rect x="10" y="13" width="4" height="1" fill="#3f5f8c"/><rect x="2" y="14" width="12" height="1" fill="#2a3242"/></svg>