<svg xmlns="http://www.w3.org/2000/svg" viewBox="0 0 16 16" shape-rendering="crispEdges" role="img"><defs><linearGradient id="g_mlcc" x1="0" y1="0" x2="1" y2="1"><stop offset="0" stop-color="#2a1d10"/><stop offset="1" stop-color="#4a3418"/></linearGradient></defs><rect width="16" height="16" fill="url(#g_mlcc)"/><rect x="2" y="5" width="2" height="1" fill="#d5dae2"/><rect x="4" y="5" width="8" height="1" fill="#8a6a3a"/><rect x="12" y="5" width="2" height="1" fill="#d5dae2"/><rect x="2" y="6" width="2" height="1" fill="#d5dae2"/><rect x="4" y="6" width="8" height="1" fill="#e0c088"/><rect x="12" y="6" width="2" height="1" fill="#d5dae2"/><rect x="2" y="7" width="2" height="1" fill="#d5dae2"/><rect x="4" y="7" width="8" height="1" fill="#8a6a3a"/><rect x="12" y="7" width="2" height="1" fill="#d5dae2"/><rect x="2" y="8" width="2" height="1" fill="#d5dae2"/><rect x="4" y="8" width="8" height="1" fill="#e0c088"/><rect x="12" y="8" width="2" height="1" fill="#d5dae2"/><rect x="2" y="9" width="2" height="1" fill="#d5dae2"/><rect x="4" y="9" width="8" height="1" fill="#8a6a3a"/><rect x="12" y="9" width="2" height="1" fill="#d5dae2"/><rect x="2" y="10" width="2" height="1" fill="#d5dae2"/><rect x="4" y="10" width="8" height="1" fill="#e0c088"/><rect x="12" y="10" width="2" height="1" fill="#d5dae2"/><rect x="2" y="11" width="2" height="1" fill="#d5dae2"/><rect x="4" y="11" width="8" height="1" fill="#8a6a3a"/><rect x="12" y="11" width="2" height="1" fill="#d5dae2"/></svg>