<svg xmlns="http://www.w3.org/2000/svg" viewBox="0 0 16 16" shape-rendering="crispEdges" role="img"><defs><linearGradient id="g_note" x1="0" y1="0" x2="1" y2="1"><stop offset="0" stop-color="#2a2721"/><stop offset="1" stop-color="#443f34"/></linearGradient></defs><rect width="16" height="16" fill="url(#g_note)"/><rect x="3" y="2" width="10" height="1" fill="#e8e2d4"/><rect x="3" y="3" width="10" height="1" fill="#e8e2d4"/><rect x="3" y="4" width="2" height="1" fill="#e8e2d4"/><rect x="5" y="4" width="5" height="1" fill="#8a8578"/><rect x="10" y="4" width="3" height="1" fill="#e8e2d4"/><rect x="3" y="5" width="10" height="1" fill="#e8e2d4"/><rect x="3" y="6" width="2" height="1" fill="#e8e2d4"/><rect x="5" y="6" width="7" height="1" fill="#8a8578"/><rect x="12" y="6" width="1" height="1" fill="#e8e2d4"/><rect x="3" y="7" width="10" height="1" fill="#e8e2d4"/><rect x="3" y="8" width="2" height="1" fill="#e8e2d4"/><rect x="5" y="8" width="7" height="1" fill="#8a8578"/><rect x="12" y="8" width="1" height="1" fill="#e8e2d4"/><rect x="3" y="9" width="10" height="1" fill="#e8e2d4"/><rect x="3" y="10" width="2" height="1" fill="#e8e2d4"/><rect x="5" y="10" width="4" height="1" fill="#8a8578"/><rect x="9" y="10" width="4" height="1" fill="#e8e2d4"/><rect x="3" y="11" width="10" height="1" fill="#e8e2d4"/><rect x="3" y="12" width="10" height="1" fill="#e8e2d4"/><rect x="3" y="13" width="10" height="1" fill="#e8e2d4"/></svg>