<svg xmlns="http://www.w3.org/2000/svg" viewBox="0 0 16 16" shape-rendering="crispEdges" role="img"><defs><linearGradient id="g_npu" x1="0" y1="0" x2="1" y2="1"><stop offset="0" stop-color="#141d2e"/><stop offset="1" stop-color="#1d2b45"/></linearGradient></defs><rect width="16" height="16" fill="url(#g_npu)"/><rect x="5" y="2" width="1" height="1" fill="#d9b45a"/><rect x="7" y="2" width="2" height="1" fill="#d9b45a"/><rect x="10" y="2" width="1" height="1" fill="#d9b45a"/><rect x="5" y="3" width="1" height="1" fill="#d9b45a"/><rect x="7" y="3" width="2" height="1" fill="#d9b45a"/><rect x="10" y="3" width="1" height="1" fill="#d9b45a"/><rect x="4" y="4" width="8" height="1" fill="#8b9cba"/><rect x="4" y="5" width="1" height="1" fill="#8b9cba"/><rect x="5" y="5" width="1" height="1" fill="#6ee7d0"/><rect x="6" y="5" width="4" height="1" fill="#2c3a55"/><rect x="10" y="5" width="1" height="1" fill="#6ee7d0"/><rect x="11" y="5" width="1" height="1" fill="#8b9cba"/><rect x="2" y="6" width="2" height="1" fill="#d9b45a"/><rect x="4" y="6" width="1" height="1" fill="#8b9cba"/><rect x="5" y="6" width="1" height="1" fill="#2c3a55"/><rect x="6" y="6" width="1" height="1" fill="#3f9c94"/><rect x="7" y="6" width="2" height="1" fill="#2c3a55"/><rect x="9" y="6" width="1" height="1" fill="#3f9c94"/><rect x="10" y="6" width="1" height="1" fill="#2c3a55"/><rect x="11" y="6" width="1" height="1" fill="#8b9cba"/><rect x="12" y="6" width="2" height="1" fill="#d9b45a"/><rect x="2" y="7" width="2" height="1" fill="#d9b45a"/><rect x="4" y="7" width="1" height="1" fill="#8b9cba"/><rect x="5" y="7" width="2" height="1" fill="#2c3a55"/><rect x="7" y="7" width="2" height="1" fill="#3f9c94"/><rect x="9" y="7" width="2" height="1" fill="#2c3a55"/><rect x="11" y="7" width="1" height="1" fill="#8b9cba"/><rect x="12" y="7" width="2" height="1" fill="#d9b45a"/><rect x="2" y="8" width="2" height="1" fill="#d9b45a"/><rect x="4" y="8" width="1" height="1" fill="#8b9cba"/><rect x="5" y="8" width="2" height="1" fill="#2c3a55"/><rect x="7" y="8" width="2" height="1" fill="#3f9c94"/><rect x="9" y="8" width="2" height="1" fill="#2c3a55"/><rect x="11" y="8" width="1" height="1" fill="#8b9cba"/><rect x="12" y="8" width="2" height="1" fill="#d9b45a"/><rect x="2" y="9" width="2" height="1" fill="#d9b45a"/><rect x="4" y="9" width="1" height="1" fill="#8b9cba"/><rect x="5" y="9" width="1" height="1" fill="#2c3a55"/><rect x="6" y="9" width="1" height="1" fill="#3f9c94"/><rect x="7" y="9" width="2" height="1" fill="#2c3a55"/><rect x="9" y="9" width="1" height="1" fill="#3f9c94"/><rect x="10" y="9" width="1" height="1" fill="#2c3a55"/><rect x="11" y="9" width="1" height="1" fill="#8b9cba"/><rect x="12" y="9" width="2" height="1" fill="#d9b45a"/><rect x="4" y="10" width="1" height="1" fill="#8b9cba"/><rect x="5" y="10" width="1" height="1" fill="#6ee7d0"/><rect x="6" y="10" width="4" height="1" fill="#2c3a55"/><rect x="10" y="10" width="1" height="1" fill="#6ee7d0"/><rect x="11" y="10" width="1" height="1" fill="#8b9cba"/><rect x="4" y="11" width="8" height="1" fill="#8b9cba"/><rect x="5" y="12" width="1" height="1" fill="#d9b45a"/><rect x="7" y="12" width="2" height="1" fill="#d9b45a"/><rect x="10" y="12" width="1" height="1" fill="#d9b45a"/><rect x="5" y="13" width="1" height="1" fill="#d9b45a"/><rect x="7" y="13" width="2" height="1" fill="#d9b45a"/><rect x="10" y="13" width="1" height="1" fill="#d9b45a"/></svg>