<svg xmlns="http://www.w3.org/2000/svg" viewBox="0 0 16 16" shape-rendering="crispEdges" role="img"><defs><linearGradient id="g_opticalfiber" x1="0" y1="0" x2="1" y2="1"><stop offset="0" stop-color="#0d1f26"/><stop offset="1" stop-color="#122a30"/></linearGradient></defs><rect width="16" height="16" fill="url(#g_opticalfiber)"/><rect x="3" y="1" width="1" height="1" fill="#eafcff"/><rect x="12" y="1" width="1" height="1" fill="#eafcff"/><rect x="3" y="2" width="1" height="1" fill="#4fd0e6"/><rect x="6" y="2" width="1" height="1" fill="#eafcff"/><rect x="9" y="2" width="1" height="1" fill="#eafcff"/><rect x="12" y="2" width="1" height="1" fill="#4fd0e6"/><rect x="3" y="3" width="1" height="1" fill="#4fd0e6"/><rect x="6" y="3" width="1" height="1" fill="#4fd0e6"/><rect x="9" y="3" width="1" height="1" fill="#4fd0e6"/><rect x="12" y="3" width="1" height="1" fill="#4fd0e6"/><rect x="4" y="4" width="1" height="1" fill="#4fd0e6"/><rect x="6" y="4" width="1" height="1" fill="#4fd0e6"/><rect x="9" y="4" width="1" height="1" fill="#4fd0e6"/><rect x="11" y="4" width="1" height="1" fill="#4fd0e6"/><rect x="4" y="5" width="1" height="1" fill="#4fd0e6"/><rect x="6" y="5" width="1" height="1" fill="#4fd0e6"/><rect x="9" y="5" width="1" height="1" fill="#4fd0e6"/><rect x="11" y="5" width="1" height="1" fill="#4fd0e6"/><rect x="5" y="6" width="2" height="1" fill="#4fd0e6"/><rect x="9" y="6" width="2" height="1" fill="#4fd0e6"/><rect x="5" y="7" width="2" height="1" fill="#4fd0e6"/><rect x="9" y="7" width="2" height="1" fill="#4fd0e6"/><rect x="6" y="8" width="4" height="1" fill="#4fd0e6"/><rect x="6" y="9" width="4" height="1" fill="#4fd0e6"/><rect x="6" y="10" width="4" height="1" fill="#5a6473"/><rect x="5" y="11" width="1" height="1" fill="#5a6473"/><rect x="6" y="11" width="4" height="1" fill="#9aa6b5"/><rect x="10" y="11" width="1" height="1" fill="#5a6473"/><rect x="5" y="12" width="1" height="1" fill="#5a6473"/><rect x="6" y="12" width="4" height="1" fill="#9aa6b5"/><rect x="10" y="12" width="1" height="1" fill="#5a6473"/><rect x="5" y="13" width="1" height="1" fill="#5a6473"/><rect x="6" y="13" width="4" height="1" fill="#9aa6b5"/><rect x="10" y="13" width="1" height="1" fill="#5a6473"/><rect x="6" y="14" width="4" height="1" fill="#5a6473"/></svg>