<svg xmlns="http://www.w3.org/2000/svg" viewBox="0 0 16 16" shape-rendering="crispEdges" role="img"><defs><linearGradient id="g_proxycard" x1="0" y1="0" x2="1" y2="1"><stop offset="0" stop-color="#1a1f2e"/><stop offset="1" stop-color="#2c1c1c"/></linearGradient></defs><rect width="16" height="16" fill="url(#g_proxycard)"/><rect x="2" y="2" width="12" height="1" fill="#f4f7fb"/><rect x="2" y="3" width="1" height="1" fill="#f4f7fb"/><rect x="3" y="3" width="10" height="1" fill="#d94040"/><rect x="13" y="3" width="1" height="1" fill="#f4f7fb"/><rect x="2" y="4" width="1" height="1" fill="#f4f7fb"/><rect x="3" y="4" width="10" height="1" fill="#d94040"/><rect x="13" y="4" width="1" height="1" fill="#f4f7fb"/><rect x="2" y="5" width="12" height="1" fill="#f4f7fb"/><rect x="2" y="6" width="1" height="1" fill="#f4f7fb"/><rect x="3" y="6" width="2" height="1" fill="#d94040"/><rect x="5" y="6" width="1" height="1" fill="#f4f7fb"/><rect x="6" y="6" width="6" height="1" fill="#4a5568"/><rect x="12" y="6" width="2" height="1" fill="#f4f7fb"/><rect x="2" y="7" width="12" height="1" fill="#f4f7fb"/><rect x="2" y="8" width="1" height="1" fill="#f4f7fb"/><rect x="3" y="8" width="2" height="1" fill="#4a5568"/><rect x="5" y="8" width="1" height="1" fill="#f4f7fb"/><rect x="6" y="8" width="6" height="1" fill="#4a5568"/><rect x="12" y="8" width="2" height="1" fill="#f4f7fb"/><rect x="2" y="9" width="12" height="1" fill="#f4f7fb"/><rect x="2" y="10" width="1" height="1" fill="#f4f7fb"/><rect x="3" y="10" width="2" height="1" fill="#d94040"/><rect x="5" y="10" width="1" height="1" fill="#f4f7fb"/><rect x="6" y="10" width="6" height="1" fill="#4a5568"/><rect x="12" y="10" width="2" height="1" fill="#f4f7fb"/><rect x="2" y="11" width="12" height="1" fill="#f4f7fb"/><rect x="2" y="12" width="4" height="1" fill="#f4f7fb"/><rect x="6" y="12" width="7" height="1" fill="#4a5568"/><rect x="13" y="12" width="1" height="1" fill="#f4f7fb"/><rect x="2" y="13" width="12" height="1" fill="#f4f7fb"/><rect x="3" y="14" width="11" height="1" fill="#4a5568"/></svg>