<svg xmlns="http://www.w3.org/2000/svg" viewBox="0 0 16 16" shape-rendering="crispEdges" role="img"><defs><linearGradient id="g_rebalance" x1="0" y1="0" x2="1" y2="1"><stop offset="0" stop-color="#2a1518"/><stop offset="1" stop-color="#4a2228"/></linearGradient></defs><rect width="16" height="16" fill="url(#g_rebalance)"/><rect x="2" y="2" width="2" height="1" fill="#ff6b6b"/><rect x="4" y="3" width="2" height="1" fill="#ff6b6b"/><rect x="2" y="4" width="2" height="1" fill="#7d8aa0"/><rect x="6" y="4" width="2" height="1" fill="#ff6b6b"/><rect x="2" y="5" width="2" height="1" fill="#7d8aa0"/><rect x="8" y="5" width="2" height="1" fill="#ff6b6b"/><rect x="2" y="6" width="2" height="1" fill="#7d8aa0"/><rect x="5" y="6" width="2" height="1" fill="#7d8aa0"/><rect x="10" y="6" width="2" height="1" fill="#ff6b6b"/><rect x="2" y="7" width="2" height="1" fill="#7d8aa0"/><rect x="5" y="7" width="2" height="1" fill="#7d8aa0"/><rect x="12" y="7" width="2" height="1" fill="#ff6b6b"/><rect x="2" y="8" width="2" height="1" fill="#7d8aa0"/><rect x="5" y="8" width="2" height="1" fill="#7d8aa0"/><rect x="8" y="8" width="2" height="1" fill="#7d8aa0"/><rect x="2" y="9" width="2" height="1" fill="#7d8aa0"/><rect x="5" y="9" width="2" height="1" fill="#7d8aa0"/><rect x="8" y="9" width="2" height="1" fill="#7d8aa0"/><rect x="2" y="10" width="2" height="1" fill="#7d8aa0"/><rect x="5" y="10" width="2" height="1" fill="#7d8aa0"/><rect x="8" y="10" width="2" height="1" fill="#7d8aa0"/><rect x="11" y="10" width="2" height="1" fill="#7d8aa0"/><rect x="2" y="11" width="2" height="1" fill="#7d8aa0"/><rect x="5" y="11" width="2" height="1" fill="#7d8aa0"/><rect x="8" y="11" width="2" height="1" fill="#7d8aa0"/><rect x="11" y="11" width="2" height="1" fill="#7d8aa0"/><rect x="2" y="12" width="2" height="1" fill="#7d8aa0"/><rect x="5" y="12" width="2" height="1" fill="#7d8aa0"/><rect x="8" y="12" width="2" height="1" fill="#7d8aa0"/><rect x="11" y="12" width="2" height="1" fill="#7d8aa0"/><rect x="1" y="13" width="14" height="1" fill="#c9c2b2"/></svg>