<svg xmlns="http://www.w3.org/2000/svg" viewBox="0 0 16 16" shape-rendering="crispEdges" role="img"><defs><linearGradient id="g_samsungsem" x1="0" y1="0" x2="1" y2="1"><stop offset="0" stop-color="#0e1f18"/><stop offset="1" stop-color="#17422f"/></linearGradient></defs><rect width="16" height="16" fill="url(#g_samsungsem)"/><rect x="2" y="2" width="12" height="1" fill="#1f6b4a"/><rect x="2" y="3" width="1" height="1" fill="#1f6b4a"/><rect x="3" y="3" width="2" height="1" fill="#e8b84b"/><rect x="5" y="3" width="5" height="1" fill="#1f6b4a"/><rect x="10" y="3" width="2" height="1" fill="#e8b84b"/><rect x="12" y="3" width="2" height="1" fill="#1f6b4a"/><rect x="2" y="4" width="1" height="1" fill="#1f6b4a"/><rect x="3" y="4" width="2" height="1" fill="#e8b84b"/><rect x="5" y="4" width="5" height="1" fill="#1f6b4a"/><rect x="10" y="4" width="2" height="1" fill="#e8b84b"/><rect x="12" y="4" width="2" height="1" fill="#1f6b4a"/><rect x="2" y="5" width="12" height="1" fill="#1f6b4a"/><rect x="2" y="6" width="2" height="1" fill="#1f6b4a"/><rect x="4" y="6" width="8" height="1" fill="#26303d"/><rect x="12" y="6" width="2" height="1" fill="#1f6b4a"/><rect x="2" y="7" width="2" height="1" fill="#1f6b4a"/><rect x="4" y="7" width="8" height="1" fill="#26303d"/><rect x="12" y="7" width="2" height="1" fill="#1f6b4a"/><rect x="2" y="8" width="2" height="1" fill="#1f6b4a"/><rect x="4" y="8" width="8" height="1" fill="#26303d"/><rect x="12" y="8" width="2" height="1" fill="#1f6b4a"/><rect x="2" y="9" width="2" height="1" fill="#1f6b4a"/><rect x="4" y="9" width="8" height="1" fill="#26303d"/><rect x="12" y="9" width="2" height="1" fill="#1f6b4a"/><rect x="2" y="10" width="12" height="1" fill="#1f6b4a"/><rect x="2" y="11" width="1" height="1" fill="#1f6b4a"/><rect x="3" y="11" width="2" height="1" fill="#e8b84b"/><rect x="5" y="11" width="5" height="1" fill="#1f6b4a"/><rect x="10" y="11" width="2" height="1" fill="#e8b84b"/><rect x="12" y="11" width="2" height="1" fill="#1f6b4a"/><rect x="2" y="12" width="1" height="1" fill="#1f6b4a"/><rect x="3" y="12" width="2" height="1" fill="#e8b84b"/><rect x="5" y="12" width="5" height="1" fill="#1f6b4a"/><rect x="10" y="12" width="2" height="1" fill="#e8b84b"/><rect x="12" y="12" width="2" height="1" fill="#1f6b4a"/><rect x="2" y="13" width="12" height="1" fill="#1f6b4a"/></svg>