<svg xmlns="http://www.w3.org/2000/svg" viewBox="0 0 16 16" shape-rendering="crispEdges" role="img"><defs><linearGradient id="g_transformer" x1="0" y1="0" x2="1" y2="1"><stop offset="0" stop-color="#1a1c26"/><stop offset="1" stop-color="#2f3448"/></linearGradient></defs><rect width="16" height="16" fill="url(#g_transformer)"/><rect x="5" y="2" width="1" height="1" fill="#e8b84b"/><rect x="9" y="2" width="1" height="1" fill="#e8b84b"/><rect x="5" y="3" width="1" height="1" fill="#e8b84b"/><rect x="9" y="3" width="1" height="1" fill="#e8b84b"/><rect x="3" y="4" width="10" height="1" fill="#7b8798"/><rect x="3" y="5" width="1" height="1" fill="#7b8798"/><rect x="4" y="5" width="2" height="1" fill="#aeb8c6"/><rect x="6" y="5" width="1" height="1" fill="#7b8798"/><rect x="7" y="5" width="2" height="1" fill="#aeb8c6"/><rect x="9" y="5" width="1" height="1" fill="#7b8798"/><rect x="10" y="5" width="2" height="1" fill="#aeb8c6"/><rect x="12" y="5" width="1" height="1" fill="#7b8798"/><rect x="3" y="6" width="1" height="1" fill="#7b8798"/><rect x="4" y="6" width="2" height="1" fill="#aeb8c6"/><rect x="6" y="6" width="1" height="1" fill="#7b8798"/><rect x="7" y="6" width="2" height="1" fill="#aeb8c6"/><rect x="9" y="6" width="1" height="1" fill="#7b8798"/><rect x="10" y="6" width="2" height="1" fill="#aeb8c6"/><rect x="12" y="6" width="1" height="1" fill="#7b8798"/><rect x="3" y="7" width="1" height="1" fill="#7b8798"/><rect x="4" y="7" width="2" height="1" fill="#aeb8c6"/><rect x="6" y="7" width="1" height="1" fill="#7b8798"/><rect x="7" y="7" width="2" height="1" fill="#aeb8c6"/><rect x="9" y="7" width="1" height="1" fill="#7b8798"/><rect x="10" y="7" width="2" height="1" fill="#aeb8c6"/><rect x="12" y="7" width="1" height="1" fill="#7b8798"/><rect x="3" y="8" width="1" height="1" fill="#7b8798"/><rect x="4" y="8" width="2" height="1" fill="#aeb8c6"/><rect x="6" y="8" width="1" height="1" fill="#7b8798"/><rect x="7" y="8" width="2" height="1" fill="#aeb8c6"/><rect x="9" y="8" width="1" height="1" fill="#7b8798"/><rect x="10" y="8" width="2" height="1" fill="#aeb8c6"/><rect x="12" y="8" width="1" height="1" fill="#7b8798"/><rect x="3" y="9" width="1" height="1" fill="#7b8798"/><rect x="4" y="9" width="2" height="1" fill="#aeb8c6"/><rect x="6" y="9" width="1" height="1" fill="#7b8798"/><rect x="7" y="9" width="2" height="1" fill="#aeb8c6"/><rect x="9" y="9" width="1" height="1" fill="#7b8798"/><rect x="10" y="9" width="2" height="1" fill="#aeb8c6"/><rect x="12" y="9" width="1" height="1" fill="#7b8798"/><rect x="3" y="10" width="1" height="1" fill="#7b8798"/><rect x="4" y="10" width="2" height="1" fill="#aeb8c6"/><rect x="6" y="10" width="1" height="1" fill="#7b8798"/><rect x="7" y="10" width="2" height="1" fill="#aeb8c6"/><rect x="9" y="10" width="1" height="1" fill="#7b8798"/><rect x="10" y="10" width="2" height="1" fill="#aeb8c6"/><rect x="12" y="10" width="1" height="1" fill="#7b8798"/><rect x="3" y="11" width="10" height="1" fill="#7b8798"/><rect x="4" y="12" width="2" height="1" fill="#7b8798"/><rect x="10" y="12" width="2" height="1" fill="#7b8798"/></svg>