<svg xmlns="http://www.w3.org/2000/svg" viewBox="0 0 16 16" shape-rendering="crispEdges" role="img"><defs><linearGradient id="g_zscaler" x1="0" y1="0" x2="1" y2="1"><stop offset="0" stop-color="#0f1e33"/><stop offset="1" stop-color="#173d63"/></linearGradient></defs><rect width="16" height="16" fill="url(#g_zscaler)"/><rect x="4" y="2" width="8" height="1" fill="#c3d4e8"/><rect x="4" y="3" width="2" height="1" fill="#c3d4e8"/><rect x="10" y="3" width="2" height="1" fill="#c3d4e8"/><rect x="4" y="4" width="2" height="1" fill="#c3d4e8"/><rect x="10" y="4" width="2" height="1" fill="#c3d4e8"/><rect x="4" y="5" width="2" height="1" fill="#c3d4e8"/><rect x="10" y="5" width="2" height="1" fill="#c3d4e8"/><rect x="4" y="6" width="2" height="1" fill="#c3d4e8"/><rect x="10" y="6" width="2" height="1" fill="#c3d4e8"/><rect x="2" y="7" width="12" height="1" fill="#7fb4ea"/><rect x="2" y="8" width="12" height="1" fill="#3f86d4"/><rect x="2" y="9" width="5" height="1" fill="#3f86d4"/><rect x="7" y="9" width="2" height="1" fill="#12263f"/><rect x="9" y="9" width="5" height="1" fill="#3f86d4"/><rect x="2" y="10" width="5" height="1" fill="#3f86d4"/><rect x="7" y="10" width="2" height="1" fill="#12263f"/><rect x="9" y="10" width="5" height="1" fill="#3f86d4"/><rect x="2" y="11" width="5" height="1" fill="#3f86d4"/><rect x="7" y="11" width="2" height="1" fill="#12263f"/><rect x="9" y="11" width="5" height="1" fill="#3f86d4"/><rect x="2" y="12" width="12" height="1" fill="#3f86d4"/><rect x="2" y="13" width="12" height="1" fill="#3f86d4"/></svg>