<svg xmlns="http://www.w3.org/2000/svg" viewBox="0 0 16 16" shape-rendering="crispEdges" role="img"><defs><linearGradient id="g_zscaler" x1="0" y1="0" x2="1" y2="1"><stop offset="0" stop-color="#0c1c30"/><stop offset="1" stop-color="#143a5c"/></linearGradient></defs><rect width="16" height="16" fill="url(#g_zscaler)"/><rect x="4" y="2" width="8" height="1" fill="#4a9de0"/><rect x="3" y="3" width="10" height="1" fill="#4a9de0"/><rect x="2" y="4" width="12" height="1" fill="#4a9de0"/><rect x="2" y="5" width="5" height="1" fill="#4a9de0"/><rect x="7" y="5" width="2" height="1" fill="#eaf6ff"/><rect x="9" y="5" width="5" height="1" fill="#4a9de0"/><rect x="2" y="6" width="5" height="1" fill="#4a9de0"/><rect x="7" y="6" width="2" height="1" fill="#eaf6ff"/><rect x="9" y="6" width="5" height="1" fill="#4a9de0"/><rect x="2" y="7" width="5" height="1" fill="#4a9de0"/><rect x="7" y="7" width="2" height="1" fill="#eaf6ff"/><rect x="9" y="7" width="5" height="1" fill="#4a9de0"/><rect x="2" y="8" width="5" height="1" fill="#4a9de0"/><rect x="7" y="8" width="2" height="1" fill="#eaf6ff"/><rect x="9" y="8" width="5" height="1" fill="#4a9de0"/><rect x="3" y="9" width="10" height="1" fill="#4a9de0"/><rect x="4" y="10" width="8" height="1" fill="#4a9de0"/><rect x="5" y="11" width="6" height="1" fill="#4a9de0"/><rect x="6" y="12" width="4" height="1" fill="#4a9de0"/><rect x="7" y="13" width="2" height="1" fill="#4a9de0"/></svg>